<?xml version="1.0" encoding="UTF-8"?>
<svg version="1.1" xmlns="http://www.w3.org/2000/svg" width="500" height="500">
<path d="M0 0 C2.70043725 8.6413992 5.84488361 21.35777959 1.59765625 29.78125 C-0.17988146 32.24981092 -1.11538654 33.0934072 -4 34 C-8.09859246 34.33457898 -9.51195905 34.32536063 -13 32 C-13.763125 32.804375 -14.52625 33.60875 -15.3125 34.4375 C-18 37 -18 37 -21 38 C-20.360625 38.78375 -19.72125 39.5675 -19.0625 40.375 C-16.10600678 44.13780955 -15.8825461 45.89896417 -15.9375 50.625 C-15.94652344 51.62789063 -15.95554687 52.63078125 -15.96484375 53.6640625 C-15.97644531 54.43492187 -15.98804688 55.20578125 -16 56 C-15.34 56 -14.68 56 -14 56 C-13.9727585 54.58344207 -13.95349533 53.16672955 -13.9375 51.75 C-13.92589844 50.96109375 -13.91429687 50.1721875 -13.90234375 49.359375 C-13.99614694 47.09308998 -14.36758937 45.1711105 -15 43 C-12.42786866 41.38050989 -11.32330841 40.95591249 -8.25 41.375 C-7.5075 41.58125 -6.765 41.7875 -6 42 C-3.90578973 48.2826308 -3.92180548 55.59479684 -6.625 61.625 C-10.41306936 65.41306936 -13.5070551 66.9582393 -18.91015625 67.109375 C-20.29566344 67.0069394 -21.67996615 66.88683342 -23.0625 66.75 C-23.75666016 66.69714844 -24.45082031 66.64429688 -25.16601562 66.58984375 C-28.83700229 66.29002907 -32.40763482 65.81230869 -36 65 C-35.76616869 62.10447188 -35.52575798 59.21006009 -35.26953125 56.31640625 C-35.10277063 54.26452554 -34.96854804 52.20936283 -34.88671875 50.15234375 C-34.64359797 45.5469416 -34.52864443 43.61890079 -31.4375 40 C-30.633125 39.34 -29.82875 38.68 -29 38 C-29 37.34 -29 36.68 -29 36 C-29.62519531 35.44183594 -30.25039063 34.88367188 -30.89453125 34.30859375 C-33.62311334 31.31677183 -33.96788997 29.02659454 -34.6875 25.0625 C-34.91824219 23.85722656 -35.14898437 22.65195313 -35.38671875 21.41015625 C-36.29333036 15.64760316 -36.60792954 9.81561938 -37 4 C-32.53476109 3.42635011 -28.06902227 2.85681301 -23.6027832 2.29101562 C-22.08473691 2.09812455 -20.56683076 1.90412709 -19.04907227 1.70898438 C-16.86250488 1.42804881 -14.67545784 1.15114766 -12.48828125 0.875 C-11.81412674 0.78750488 -11.13997223 0.70000977 -10.44538879 0.60986328 C-6.9404107 0.17148261 -3.53240975 -0.09506906 0 0 Z M-13 13 C-12.34 16.3 -11.68 19.6 -11 23 C-9.68 23.33 -8.36 23.66 -7 24 C-5.68737429 22.91447634 -5.68737429 22.91447634 -5.90234375 20.27734375 C-5.91394531 19.17519531 -5.92554688 18.07304687 -5.9375 16.9375 C-5.94652344 15.83277344 -5.95554687 14.72804687 -5.96484375 13.58984375 C-5.97644531 12.73519531 -5.98804688 11.88054687 -6 11 C-10.04622502 10.63019987 -10.04622502 10.63019987 -13 13 Z M-27 14 C-27.28362108 18.8215583 -26.75417412 22.50492881 -25 27 C-23.35 26.67 -21.7 26.34 -20 26 C-19.97303635 24.20841511 -19.95362083 22.41671527 -19.9375 20.625 C-19.92589844 19.62726563 -19.91429687 18.62953125 -19.90234375 17.6015625 C-19.81993398 15.01567547 -19.81993398 15.01567547 -21 13 C-24.28930404 12.63314303 -24.28930404 12.63314303 -27 14 Z M-27 48 C-27.93065133 50.60582371 -28.14917407 51.64198224 -27.0625 54.25 C-26.711875 54.8275 -26.36125 55.405 -26 56 C-25.34 56 -24.68 56 -24 56 C-22.64560332 53.29120665 -22.93498549 50.99066732 -23 48 C-24.32 48 -25.64 48 -27 48 Z " fill="#010101" transform="translate(431,209)"/>
<path d="M0 0 C2.98168922 2.62672622 4.28159722 4.58082561 5.625 8.3125 C5.625 10.2925 5.625 12.2725 5.625 14.3125 C-0.645 15.3025 -6.915 16.2925 -13.375 17.3125 C-12.21197846 18.69778649 -12.21197846 18.69778649 -9 18.5 C-5.27824609 18.61703853 -5.27824609 18.61703853 -2.375 16.3125 C0.94740324 16.6366369 2.23276303 16.92026303 4.625 19.3125 C4.625 21.1875 4.625 21.1875 3.625 23.3125 C-1.16681603 27.61284772 -6.10329937 28.5709219 -12.375 28.3125 C-16.99800469 27.2422788 -20.28675213 24.89486753 -23.375 21.3125 C-23.72111328 22.21742187 -23.72111328 22.21742187 -24.07421875 23.140625 C-27.59215228 31.76164788 -27.59215228 31.76164788 -32.375 34.3125 C-35.3719177 34.89775666 -38.32651644 35.17966847 -41.375 35.3125 C-41.1584375 35.85519531 -40.941875 36.39789063 -40.71875 36.95703125 C-40.4403125 37.67246094 -40.161875 38.38789062 -39.875 39.125 C-39.5965625 39.83269531 -39.318125 40.54039063 -39.03125 41.26953125 C-38.375 43.3125 -38.375 43.3125 -38.375 46.3125 C-41.91851073 47.93239062 -44.50219419 48.41664268 -48.375 48.3125 C-48.66745605 47.49048096 -48.95991211 46.66846191 -49.26123047 45.8215332 C-50.35257767 42.75550125 -51.44479688 39.68978172 -52.53759766 36.62426758 C-53.00929871 35.3004979 -53.4806577 33.97660629 -53.95166016 32.65258789 C-54.6309237 30.74332598 -55.3114391 28.83451416 -55.9921875 26.92578125 C-56.40065918 25.77891846 -56.80913086 24.63205566 -57.22998047 23.45043945 C-57.94278891 21.49697955 -58.700252 19.55853185 -59.52392578 17.64916992 C-60.375 15.3125 -60.375 15.3125 -60.375 11.3125 C-59.52228516 11.16554688 -59.52228516 11.16554688 -58.65234375 11.015625 C-54.6383855 10.23829753 -51.35162159 9.49080691 -47.9375 7.1875 C-43.63558417 4.52631486 -39.28413028 4.50374707 -34.375 5.3125 C-30.16201991 7.41899004 -28.28568101 9.10192519 -26.375 13.3125 C-26.22804687 12.72082031 -26.08109375 12.12914063 -25.9296875 11.51953125 C-23.91082936 4.40711722 -21.42946572 1.7232634 -15.0625 -2.0625 C-9.63428344 -3.32487594 -4.94369455 -2.47184727 0 0 Z M-13.6875 6.625 C-14.244375 7.181875 -14.80125 7.73875 -15.375 8.3125 C-15.375 8.9725 -15.375 9.6325 -15.375 10.3125 C-10.92 9.8175 -10.92 9.8175 -6.375 9.3125 C-6.375 8.3225 -6.375 7.3325 -6.375 6.3125 C-9.49474415 5.35924484 -10.78450221 4.97735261 -13.6875 6.625 Z M-46.375 16.3125 C-47.38953953 18.63274404 -47.38953953 18.63274404 -47.375 21.3125 C-46.2334081 23.5956838 -45.18487317 25.50262683 -43.375 27.3125 C-39.65275401 27.60636153 -38.59713757 27.46059171 -35.375 25.3125 C-34.78698637 20.06231046 -34.78698637 20.06231046 -36.5625 15.3125 C-40.40609971 13.19189327 -42.85338688 13.96475792 -46.375 16.3125 Z M-25.375 16.3125 C-24.375 18.3125 -24.375 18.3125 -24.375 18.3125 Z " fill="#010101" transform="translate(236.375,73.6875)"/>
<path d="M0 0 C9.71994154 4.22309473 18.50574443 16.348128 25.87792969 23.81591797 C24.20533 27.39368388 22.23947722 29.63300467 19.37792969 32.37841797 C16.84983816 34.81211647 14.83120035 36.88601198 12.87792969 39.81591797 C12.21792969 39.81591797 11.55792969 39.81591797 10.87792969 39.81591797 C10.63042969 40.45529297 10.38292969 41.09466797 10.12792969 41.75341797 C8.87792969 43.81591797 8.87792969 43.81591797 7.00292969 44.81591797 C4.87792969 44.81591797 4.87792969 44.81591797 2.56542969 43.12841797 C0.87792969 40.81591797 0.87792969 40.81591797 0.95605469 38.98779297 C2.2908844 35.84302467 4.45465 34.0713813 6.94042969 31.75341797 C9.68334551 29.26152427 9.68334551 29.26152427 11.87792969 26.81591797 C11.87792969 25.82591797 11.87792969 24.83591797 11.87792969 23.81591797 C7.1960142 24.2732987 5.24688794 26.00702191 2.06542969 29.37841797 C1.27523437 30.20470703 0.48503906 31.03099609 -0.32910156 31.88232422 C-0.92078125 32.52041016 -1.51246094 33.15849609 -2.12207031 33.81591797 C-4.10207031 32.16591797 -6.08207031 30.51591797 -8.12207031 28.81591797 C-6.64485609 25.36390158 -4.6841303 23.16629861 -1.99707031 20.56591797 C-1.27261719 19.85951172 -0.54816406 19.15310547 0.19824219 18.42529297 C0.75253906 17.89419922 1.30683594 17.36310547 1.87792969 16.81591797 C0.55792969 15.49591797 -0.76207031 14.17591797 -2.12207031 12.81591797 C-3.77093091 14.43784617 -5.41607271 16.06355569 -7.05957031 17.69091797 C-7.97609375 18.59583984 -8.89261719 19.50076172 -9.83691406 20.43310547 C-12.13394658 22.59274051 -12.13394658 22.59274051 -13.12207031 24.81591797 C-15.18457031 25.44091797 -15.18457031 25.44091797 -17.12207031 25.81591797 C-16.78884766 26.2796582 -16.455625 26.74339844 -16.11230469 27.22119141 C-14.60576363 29.32929536 -13.1138618 31.44735414 -11.62207031 33.56591797 C-11.09742188 34.29552734 -10.57277344 35.02513672 -10.03222656 35.77685547 C-9.5359375 36.48583984 -9.03964844 37.19482422 -8.52832031 37.92529297 C-8.06748047 38.5746582 -7.60664063 39.22402344 -7.13183594 39.89306641 C-6.12207031 41.81591797 -6.12207031 41.81591797 -6.12207031 45.81591797 C-9.42341949 48.383634 -10.85081523 48.81591797 -15.12207031 48.81591797 C-15.43144531 49.68216797 -15.43144531 49.68216797 -15.74707031 50.56591797 C-17.70655634 53.77234964 -19.81332916 55.06790378 -23.12207031 56.81591797 C-27.226022 57.40219678 -29.34702861 57.23551314 -33.00097656 55.25732422 C-36.74874246 52.32571761 -39.00237149 49.21726727 -41.55957031 45.25341797 C-42.01783203 44.58117187 -42.47609375 43.90892578 -42.94824219 43.21630859 C-44.09644144 41.47236192 -45.11974969 39.6476016 -46.12207031 37.81591797 C-45.12207031 34.81591797 -45.12207031 34.81591797 -42.74707031 33.12841797 C-40.12207031 31.81591797 -40.12207031 31.81591797 -37.12207031 31.81591797 C-35.14941406 34.37060547 -35.14941406 34.37060547 -33.05957031 37.69091797 C-30.38911704 41.99266104 -30.38911704 41.99266104 -27.12207031 45.81591797 C-24.51926463 45.495504 -24.51926463 45.495504 -22.12207031 44.81591797 C-21.24383868 42.63877489 -21.24383868 42.63877489 -21.12207031 39.81591797 C-22.34686946 37.4242298 -23.54728875 35.38060169 -25.05957031 33.19091797 C-29.12207031 27.16838041 -29.12207031 27.16838041 -29.12207031 23.81591797 C-26.23373029 21.70821038 -24.73744636 20.81591797 -21.12207031 20.81591797 C-20.86989746 20.24139893 -20.61772461 19.66687988 -20.35791016 19.07495117 C-17.98747895 14.74196028 -14.20259046 11.48476842 -10.74707031 8.00341797 C-9.59464844 6.80168945 -9.59464844 6.80168945 -8.41894531 5.57568359 C-7.67386719 4.82351563 -6.92878906 4.07134766 -6.16113281 3.29638672 C-5.48260254 2.60440186 -4.80407227 1.91241699 -4.10498047 1.19946289 C-2.12207031 -0.18408203 -2.12207031 -0.18408203 0 0 Z " fill="#000000" transform="translate(366.1220703125,340.18408203125)"/>
<path d="M0 0 C4.73963177 2.14708883 7.21570938 4.64006489 9.703125 9.31640625 C10.198125 10.80140625 10.198125 10.80140625 10.703125 12.31640625 C11.404375 11.53265625 12.105625 10.74890625 12.828125 9.94140625 C16.45603786 6.62896407 19.04013284 5.35276109 23.9921875 5.28515625 C29.98583007 5.65627963 35.66911827 6.90737235 40.703125 10.31640625 C41.953125 12.81640625 41.953125 12.81640625 41.703125 15.31640625 C40.265625 17.62890625 40.265625 17.62890625 38.703125 19.31640625 C35.98396972 18.77257519 33.87631696 17.93362475 31.328125 16.75390625 C27.76410365 15.34058744 25.48072742 15.03999632 21.703125 15.31640625 C21.703125 16.30640625 21.703125 17.29640625 21.703125 18.31640625 C22.67894531 18.78691406 23.65476563 19.25742187 24.66015625 19.7421875 C25.94547008 20.37077164 27.23061767 20.99969577 28.515625 21.62890625 C29.15822266 21.93763672 29.80082031 22.24636719 30.46289062 22.56445312 C36.87990223 25.72308578 36.87990223 25.72308578 38.703125 28.31640625 C39.54873928 32.01596874 39.48434931 35.73392624 37.7890625 39.16796875 C34.9616247 42.87100019 32.23002759 44.54768694 27.703125 45.31640625 C21.26059276 45.29475068 15.4887625 44.15662829 9.703125 41.31640625 C8.8984375 39.3828125 8.8984375 39.3828125 8.703125 37.31640625 C10.140625 34.56640625 10.140625 34.56640625 11.703125 32.31640625 C14.09587675 32.86857973 16.32536401 33.54147142 18.640625 34.37890625 C21.54175249 35.2670065 23.6991665 35.49310969 26.703125 35.31640625 C27.033125 34.32640625 27.363125 33.33640625 27.703125 32.31640625 C26.81109375 31.9296875 25.9190625 31.54296875 25 31.14453125 C23.82953125 30.62375 22.6590625 30.10296875 21.453125 29.56640625 C20.29296875 29.0559375 19.1328125 28.54546875 17.9375 28.01953125 C14.21137371 26.05746475 11.60221111 24.11457846 9.703125 20.31640625 C9.38859375 20.79851562 9.0740625 21.280625 8.75 21.77734375 C8.32203125 22.40898437 7.8940625 23.040625 7.453125 23.69140625 C6.82664063 24.63113281 6.82664063 24.63113281 6.1875 25.58984375 C3.73324325 28.44453186 1.61138665 29.20761725 -2.1015625 29.65234375 C-8.36691106 29.73205556 -12.42731982 29.69900591 -17.296875 25.31640625 C-18.06 24.78015625 -18.823125 24.24390625 -19.609375 23.69140625 C-22.31882282 19.87810933 -22.47403424 15.91546016 -22.296875 11.31640625 C-21.20829335 6.22030278 -18.6016786 3.18627531 -14.296875 0.31640625 C-10.02940186 -1.81733032 -4.48298171 -1.33422075 0 0 Z M-11.296875 10.44140625 C-12.48019208 13.84344287 -12.17996758 15.86431707 -11.296875 19.31640625 C-6.86594302 21.12942383 -6.86594302 21.12942383 -2.296875 20.31640625 C0.15210347 16.64293854 0.01850216 14.65284226 -0.296875 10.31640625 C-2.23762386 7.96754193 -2.23762386 7.96754193 -5.734375 7.87890625 C-9.36961509 7.94007225 -9.36961509 7.94007225 -11.296875 10.44140625 Z " fill="#010101" transform="translate(206.296875,385.68359375)"/>
<path d="M0 0 C4.46048418 0.87460474 6.48636713 1.54100893 9.9375 4.625 C11.90460739 7.84390301 12.78754765 9.91079169 12.57421875 13.69921875 C11.36283175 18.55300747 8.60830306 22.77703315 6 27 C8.31 28.32 10.62 29.64 13 31 C15.97 25.39 18.94 19.78 22 14 C25.75635569 14.75127114 27.83210307 15.24005726 31 17 C30.38188466 21.55315948 28.53234107 25.28459767 26.4375 29.3125 C26.10814453 29.95767578 25.77878906 30.60285156 25.43945312 31.26757812 C24.63175745 32.84785228 23.81662387 34.42432105 23 36 C23.99 36.495 23.99 36.495 25 37 C24.125 42.75 24.125 42.75 23 45 C21.9171875 44.8453125 21.9171875 44.8453125 20.8125 44.6875 C17.75614238 44.71645298 17.75614238 44.71645298 15.6875 47.5 C13 50 13 50 9.0625 50.5625 C4.8527942 50.28344753 2.18716884 48.79848972 -1 46 C-2.125 44 -2.125 44 -2 42 C-0.0625 39.75 -0.0625 39.75 2 38 C2.598125 38.309375 3.19625 38.61875 3.8125 38.9375 C6.08956772 40.10209704 6.08956772 40.10209704 9 41 C7.27773504 37.75150023 7.27773504 37.75150023 4 37 C4 36.34 4 35.68 4 35 C2.35 34.67 0.7 34.34 -1 34 C-1.66 35.32 -2.32 36.64 -3 38 C-6.82097239 37.46930939 -9.06171403 36.50298434 -12 34 C-11.01 30.535 -11.01 30.535 -10 27 C-10.99 26.34 -11.98 25.68 -13 25 C-12.25 20.25 -12.25 20.25 -10 18 C-8.0625 18.375 -8.0625 18.375 -6 19 C-5.01 19 -4.02 19 -3 19 C-0.55060653 15.83019669 1.38390949 13.00458831 2 9 C0.68 8.67 -0.64 8.34 -2 8 C-1.125 1.125 -1.125 1.125 0 0 Z " fill="#010101" transform="translate(157,362)"/>
<path d="M0 0 C0.83660156 0.17144531 1.67320313 0.34289062 2.53515625 0.51953125 C4.86840613 1.16828853 6.81834186 2.02759127 8.9375 3.1875 C8.9375 3.8475 8.9375 4.5075 8.9375 5.1875 C9.5975 5.1875 10.2575 5.1875 10.9375 5.1875 C11.59943086 6.34510932 12.24104146 7.5143383 12.875 8.6875 C13.23464844 9.3371875 13.59429687 9.986875 13.96484375 10.65625 C16.44841313 17.11951489 15.96815473 23.35830264 15.0625 30.0625 C14.92521484 31.19945312 14.92521484 31.19945312 14.78515625 32.359375 C14.08651414 37.88947173 14.08651414 37.88947173 12.9375 40.1875 C8.45742049 39.73782492 3.97864862 39.27619284 -0.5 38.8125 C-2.39008789 38.62300781 -2.39008789 38.62300781 -4.31835938 38.4296875 C-11.03652543 37.72805136 -17.50792652 36.82792644 -24.0625 35.1875 C-22.87168874 11.40261192 -22.87168874 11.40261192 -15.0625 3.1875 C-10.24844593 -0.45239454 -5.85937559 -1.25881485 0 0 Z M-11.90625 13.34375 C-14.29941449 17.15987716 -14.0471276 21.79867869 -14.0625 26.1875 C-4.06992686 27.73760435 -4.06992686 27.73760435 5.9375 29.1875 C6.04573773 26.93856046 6.12319645 24.68812425 6.1875 22.4375 C6.23390625 21.18453125 6.2803125 19.9315625 6.328125 18.640625 C6.2396781 15.13703318 6.2396781 15.13703318 4.046875 12.796875 C-1.13427452 8.84384981 -6.9157619 8.77798429 -11.90625 13.34375 Z " fill="#010101" transform="translate(89.0625,206.8125)"/>
<path d="M0 0 C0.33 0.66 0.66 1.32 1 2 C2.98 1.67 4.96 1.34 7 1 C10 6.625 10 6.625 10 10 C8.02 10.99 8.02 10.99 6 12 C6.33 14.31 6.66 16.62 7 19 C4.09399739 20.25664978 2.20395416 21 -1 21 C-1.495 18.525 -1.495 18.525 -2 16 C-5.3 17.32 -8.6 18.64 -12 20 C-12 21.32 -12 22.64 -12 24 C-12 25.32 -12 26.64 -12 28 C1.2 28.66 14.4 29.32 28 30 C29.88343932 33.76687864 30.22057835 35.02958963 30 39 C18.86511109 39.18381566 7.80151108 38.60586761 -3.3125 38 C-5.13214486 37.90333289 -6.95180626 37.80697652 -8.77148438 37.7109375 C-13.18118812 37.47753493 -17.59064774 37.23994738 -22 37 C-23.74565111 33.78360346 -24.204437 31.67986596 -24 28 C-23.01 27.67 -22.02 27.34 -21 27 C-21.33 26.484375 -21.66 25.96875 -22 25.4375 C-23.39434583 22.03878205 -23.44751559 19.64405552 -23 16 C-19.67653758 11.34715261 -15.24706454 9.53428709 -10.109375 7.40625 C-7.73439241 6.16131891 -7.73439241 6.16131891 -7.328125 3.40625 C-7.21984375 2.6121875 -7.1115625 1.818125 -7 1 C-4.53721199 -0.231394 -2.7204945 -0.07159196 0 0 Z " fill="#010101" transform="translate(407,165)"/>
<path d="M0 0 C2.3125 1.6875 2.3125 1.6875 4 4 C4.13175434 9.66543679 0.83480092 14.29276599 -2 19 C-0.77023438 18.44119141 -0.77023438 18.44119141 0.484375 17.87109375 C1.56203125 17.39800781 2.6396875 16.92492187 3.75 16.4375 C4.81734375 15.96183594 5.8846875 15.48617188 6.984375 14.99609375 C10.02285812 13.99244971 11.12599397 13.75182366 14 15 C16.3125 16.75 16.3125 16.75 18 19 C17.60374185 22.84431368 16.23595274 25.88105842 14.49609375 29.30078125 C13.75649414 30.76547852 13.75649414 30.76547852 13.00195312 32.25976562 C12.48568359 33.26716797 11.96941406 34.27457031 11.4375 35.3125 C10.91736328 36.33923828 10.39722656 37.36597656 9.86132812 38.42382812 C8.57959638 40.9520146 7.29233939 43.477224 6 46 C2 46 2 46 -0.3125 44.3125 C-2 42 -2 42 -1.796875 39.71875 C-0.87860786 36.5858386 0.45475988 34.02670063 2.0625 31.1875 C2.61035156 30.21167969 3.15820312 29.23585938 3.72265625 28.23046875 C4.14417969 27.49441406 4.56570312 26.75835937 5 26 C4.10796875 26.44472656 3.2159375 26.88945312 2.296875 27.34765625 C1.12640625 27.91355469 -0.0440625 28.47945313 -1.25 29.0625 C-2.41015625 29.63097656 -3.5703125 30.19945312 -4.765625 30.78515625 C-8 32 -8 32 -10.171875 31.99609375 C-12 31 -12 31 -16 26 C-13.69 21.38 -11.38 16.76 -9 12 C-10.58941406 12.66708984 -10.58941406 12.66708984 -12.2109375 13.34765625 C-13.59879101 13.91967696 -14.98682108 14.49126944 -16.375 15.0625 C-17.07367188 15.35705078 -17.77234375 15.65160156 -18.4921875 15.95507812 C-20.30504908 16.69591098 -22.15123143 17.35396964 -24 18 C-24.66 17.67 -25.32 17.34 -26 17 C-26 16.34 -26 15.68 -26 15 C-26.99 14.67 -27.98 14.34 -29 14 C-29 12.68 -29 11.36 -29 10 C-24.92503382 8.12703141 -20.83884514 6.27994888 -16.75 4.4375 C-15.59113281 3.90447266 -14.43226562 3.37144531 -13.23828125 2.82226562 C-12.12324219 2.32275391 -11.00820312 1.82324219 -9.859375 1.30859375 C-8.83295898 0.84251709 -7.80654297 0.37644043 -6.74902344 -0.10375977 C-3.86415424 -1.04428861 -2.75145387 -1.16003773 0 0 Z " fill="#010101" transform="translate(135,338)"/>
<path d="M0 0 C3.96574045 4.14600138 5.52590686 7.74611515 6.125 13.4375 C5.57649745 18.46544003 4.02603452 21.52604922 0.5625 25.1875 C-3.15114404 27.41568642 -5.94953629 27.58344314 -10.25 27.875 C-9.90775391 28.67164063 -9.90775391 28.67164063 -9.55859375 29.484375 C-9.27113281 30.19078125 -8.98367188 30.8971875 -8.6875 31.625 C-8.39746094 32.32109375 -8.10742188 33.0171875 -7.80859375 33.734375 C-7.1599039 36.22026336 -7.29180901 37.50500634 -8.25 39.875 C-10.66453188 41.24540999 -12.43325518 41.87763728 -15.21582031 41.86865234 C-18.55606013 40.23701816 -19.25234883 36.96826956 -20.484375 33.6640625 C-20.76726379 32.94012299 -21.05015259 32.21618347 -21.34161377 31.4703064 C-21.93703859 29.93810323 -22.52497034 28.40297029 -23.10595703 26.86523438 C-23.99605772 24.5104295 -24.90790056 22.16502352 -25.82421875 19.8203125 C-26.39973022 18.33122814 -26.97399126 16.84165978 -27.546875 15.3515625 C-27.81868591 14.64834869 -28.09049683 13.94513489 -28.37054443 13.22061157 C-29.47287684 10.29172487 -30.25 8.03238054 -30.25 4.875 C-27.77238882 3.48753774 -25.57686822 2.6914186 -22.8125 1.9375 C-19.48598239 0.94538071 -17.16914376 -0.31039713 -14.25 -2.125 C-9.14388967 -4.16744413 -4.46538593 -2.91967542 0 0 Z M-15.0625 8 C-16.82844751 10.78833817 -16.71181576 12.64228968 -16.25 15.875 C-14.77006844 18.43838689 -14.77006844 18.43838689 -12.25 19.875 C-9.11637282 19.96392339 -9.11637282 19.96392339 -6.25 18.875 C-3.93462405 16.05791805 -3.93462405 16.05791805 -4.4375 12.875 C-5.26610222 9.81554567 -5.60755999 8.57371143 -8.25 6.875 C-11.10480169 6.44677975 -12.59492892 6.46840416 -15.0625 8 Z " fill="#010101" transform="translate(321.25,383.125)"/>
<path d="M0 0 C4.57094366 0.62171839 8.32429148 2.4720662 12.375 4.5625 C13.06529297 4.913125 13.75558594 5.26375 14.46679688 5.625 C21.6975803 9.31591761 28.85758688 13.14145498 36 17 C35.38550003 20.33822957 34.65439171 23.02209492 33 26 C28.49272353 25.39733215 25.1412037 23.63400206 21.1875 21.4375 C20.59001953 21.10814453 19.99253906 20.77878906 19.37695312 20.43945312 C17.91466002 19.63226733 16.4568601 18.81695083 15 18 C15.22816406 18.65226562 15.45632813 19.30453125 15.69140625 19.9765625 C17.91934686 26.75030123 18.50918037 30.7401704 15.4375 37.375 C14.963125 38.24125 14.48875 39.1075 14 40 C12.515 39.505 12.515 39.505 11 39 C9.83203125 36.05859375 9.83203125 36.05859375 8.8125 32.4375 C8.46832031 31.23996094 8.12414062 30.04242188 7.76953125 28.80859375 C7.38861328 27.41833984 7.38861328 27.41833984 7 26 C6.39414062 26.06058594 5.78828125 26.12117188 5.1640625 26.18359375 C3.90722656 26.30927734 3.90722656 26.30927734 2.625 26.4375 C1.72265625 26.52773438 0.8203125 26.61796875 -0.109375 26.7109375 C-6.5546875 27.35546875 -6.5546875 27.35546875 -13 28 C-12.36079057 25.99105606 -11.68960962 23.99220557 -11 22 C-10.773125 21.2575 -10.54625 20.515 -10.3125 19.75 C-8.14239438 16.85652584 -5.44088803 16.68817761 -2 16 C1.4375 15.875 1.4375 15.875 4 16 C3.96044102 14.07690578 3.96044102 14.07690578 3 12 C0.01647106 10.21620585 0.01647106 10.21620585 -3 9 C-2.44271087 5.65626525 -1.64826111 2.96687001 0 0 Z " fill="#000000" transform="translate(386,302)"/>
<path d="M0 0 C3.29051119 0.70175188 6.14927012 1.8825136 9.203125 3.28515625 C10.1828125 3.73310547 11.1625 4.18105469 12.171875 4.64257812 C13.18765625 5.11115234 14.2034375 5.57972656 15.25 6.0625 C16.28125 6.53494141 17.3125 7.00738281 18.375 7.49414062 C20.91808145 8.65971962 23.45966888 9.8284419 26 11 C25.125 16.75 25.125 16.75 24 19 C18.7079795 18.58220891 14.77047259 16.5181467 10.171875 14.05859375 C8.10305148 12.85395436 8.10305148 12.85395436 6 13 C5.34 14.65 4.68 16.3 4 18 C10.435 21.465 10.435 21.465 17 25 C16 31 16 31 15 33 C9.36356536 32.11645079 5.03367033 29.61750857 0 27 C-2.97 32.445 -2.97 32.445 -6 38 C-8.97 37.01 -11.94 36.02 -15 35 C-14.43423584 30.72362778 -13.41253482 27.24891006 -11.6015625 23.33984375 C-11.12203125 22.29892578 -10.6425 21.25800781 -10.1484375 20.18554688 C-9.64570313 19.11369141 -9.14296875 18.04183594 -8.625 16.9375 C-8.13 15.86177734 -7.635 14.78605469 -7.125 13.67773438 C-4.94111804 8.96837395 -2.7347911 4.41862531 0 0 Z " fill="#000000" transform="translate(316,74)"/>
<path d="M0 0 C-0.64916463 6.00477279 -2.85795003 11.400781 -5 17 C-4.67 17.33 -4.34 17.66 -4 18 C-2.00687831 15.01031747 -1.78800422 14.29162532 -1.625 10.9375 C-1 7 -1 7 0.8125 5.5 C3 5 3 5 7 5 C8.82146757 10.46440272 8.70719443 15.09470973 6.25 20.25 C3.50245725 25.09860485 1.23044809 27.86762894 -4.25 29.4375 C-9.16235559 30.34240761 -12.72060319 29.52661555 -17 27 C-20.61301312 23.92509522 -22.72331352 21.7934693 -23.203125 16.94921875 C-23.30878583 11.85108367 -22.96124966 8.34316617 -20 4 C-13.67293108 -2.53974351 -8.53977169 -2.84659056 0 0 Z M-13.6875 9.0625 C-15.37885915 11.12200772 -15.37885915 11.12200772 -14.6875 14.6875 C-14.460625 15.780625 -14.23375 16.87375 -14 18 C-11.16625119 14.79663178 -10.4794463 12.21912747 -10 8 C-12.05027772 7.82239558 -12.05027772 7.82239558 -13.6875 9.0625 Z " fill="#010101" transform="translate(106,178)"/>
<path d="M0 0 C0.50838564 2.03959477 1.00633886 4.08179138 1.5 6.125 C1.7784375 7.26195312 2.056875 8.39890625 2.34375 9.5703125 C2.96453765 12.81466698 3.12006768 15.70814457 3 19 C3.66 18.67 4.32 18.34 5 18 C5.44570555 13.10164808 5.44570555 13.10164808 3.375 8.875 C2.694375 7.946875 2.694375 7.946875 2 7 C2.5 4.3125 2.5 4.3125 4 2 C6.625 1.1875 6.625 1.1875 9 1 C13.61448247 6.44272291 15.38287301 10.79502612 15 18 C13.35395187 23.90640798 10.80402955 26.52474458 6 30 C2.52363841 31.7381808 -1.199041 31.45508953 -5 31 C-9.83805465 28.6266147 -12.55934539 25.7909146 -15 21 C-16.36091488 16.26752826 -16.48138284 12.26723372 -14.5625 7.6875 C-11.34202675 2.06569827 -6.27842031 0 0 0 Z M-6 11 C-8.26646351 13.75556583 -8.26646351 13.75556583 -7.875 16.5625 C-7.13423413 19.50849326 -7.13423413 19.50849326 -3 21 C-3.66 17.7 -4.32 14.4 -5 11 C-5.33 11 -5.66 11 -6 11 Z " fill="#010101" transform="translate(92,262)"/>
<path d="M0 0 C1.66015625 1.08984375 1.66015625 1.08984375 4.09765625 3.02734375 C3.52420688 5.89459061 3.23620475 6.88879525 1.09765625 9.02734375 C3.40765625 9.35734375 5.71765625 9.68734375 8.09765625 10.02734375 C9.36845044 12.91551236 9.03394871 14.25244373 8.16015625 17.33984375 C5.81500557 22.4136978 1.06083339 26.54575518 -3.90234375 29.02734375 C-8.55282669 29.59470267 -11.99964952 29.48720685 -16.21484375 27.33984375 C-17.10171875 26.57671875 -17.98859375 25.81359375 -18.90234375 25.02734375 C-19.68609375 24.36734375 -20.46984375 23.70734375 -21.27734375 23.02734375 C-23.89730356 18.19049486 -23.60199516 13.39862592 -22.90234375 8.02734375 C-20.81405045 3.15465939 -17.85945203 0.7668668 -13.1171875 -1.34375 C-8.57406845 -2.63377146 -4.20117595 -2.14803452 0 0 Z M-13.71484375 8.21484375 C-15.26912581 10.587169 -15.12771563 12.2477572 -14.90234375 15.02734375 C-13.75308109 14.07312567 -12.60803834 13.1138233 -11.46484375 12.15234375 C-10.82675781 11.61867187 -10.18867187 11.085 -9.53125 10.53515625 C-7.79429371 9.10506805 -7.79429371 9.10506805 -6.90234375 7.02734375 C-10.5122244 6.73126678 -10.5122244 6.73126678 -13.71484375 8.21484375 Z M-0.90234375 10.02734375 C-2.28525262 11.50088724 -3.63411569 13.00651168 -4.96484375 14.52734375 C-5.69832031 15.36265625 -6.43179688 16.19796875 -7.1875 17.05859375 C-8.03634766 18.033125 -8.03634766 18.033125 -8.90234375 19.02734375 C-7.91234375 19.35734375 -6.92234375 19.68734375 -5.90234375 20.02734375 C-3.14525787 18.53938765 -3.14525787 18.53938765 -0.90234375 16.02734375 C-0.01640377 12.88870671 -0.01640377 12.88870671 0.09765625 10.02734375 C-0.23234375 10.02734375 -0.56234375 10.02734375 -0.90234375 10.02734375 Z " fill="#000000" transform="translate(136.90234375,125.97265625)"/>
<path d="M0 0 C1.67663568 2.34728995 2.85480652 4.61627437 3.875 7.3125 C4.92954181 9.83168322 6.13209688 11.65115918 7.6875 13.875 C9.67573475 16.98344962 10 17.87832011 10 21.75 C8.41258741 26.90909091 8.41258741 26.90909091 6 29 C1.77686709 30.27490805 -0.19734423 30.39345871 -4.1875 28.4375 C-7.16490853 25.85707927 -9.06544534 23.42267363 -11 20 C-11 19.34 -11 18.68 -11 18 C-11.66 18 -12.32 18 -13 18 C-12.01195725 21.86234895 -11.20741814 23.79740553 -8.3125 26.625 C-7.549375 27.40875 -6.78625 28.1925 -6 29 C-6.09152637 32.11189674 -7.23116251 33.34674377 -9 36 C-11.96175123 35.38722388 -13.38058783 34.74627478 -16 33 C-16 32.34 -16 31.68 -16 31 C-16.66 31 -17.32 31 -18 31 C-21.46307056 26.02183607 -22.45402476 22.47256216 -22.53125 16.4296875 C-21.49085021 11.67138847 -18.36741666 9.09469288 -14.43359375 6.54296875 C-13.10749435 5.74783482 -11.77528077 4.96281942 -10.4375 4.1875 C-9.76525391 3.78080078 -9.09300781 3.37410156 -8.40039062 2.95507812 C-3.39910714 0 -3.39910714 0 0 0 Z M-5 13 C-5.33 13.66 -5.66 14.32 -6 15 C-4.80787306 17.62597583 -4.80787306 17.62597583 -3 20 C-2.01 20.33 -1.02 20.66 0 21 C0.76956136 18.65466049 0.76956136 18.65466049 1 16 C-0.14646548 14.10338257 -0.14646548 14.10338257 -2 13 C-2.99 13 -3.98 13 -5 13 Z " fill="#010101" transform="translate(117,308)"/>
<path d="M0 0 C2.49977543 3.33303391 3 4.73303602 3 9 C3.5775 9.226875 4.155 9.45375 4.75 9.6875 C7.78738074 11.45930543 9.18872454 12.95964477 11 16 C11.68331322 20.66652932 11.72957167 25.01776371 9 29 C6.87793474 30.65583254 4.80430508 32.15496388 2.5625 33.625 C1.68368164 34.21667969 1.68368164 34.21667969 0.78710938 34.8203125 C-0.80289529 35.88873788 -2.40110151 36.94493068 -4 38 C-4.99 38.66 -5.98 39.32 -7 40 C-7.99 40 -8.98 40 -10 40 C-12.1875 37 -12.1875 37 -14 34 C-12.49622998 29.92091125 -10.0907002 28.5082305 -6.4375 26.3125 C-3.03339722 24.40254992 -3.03339722 24.40254992 0 22 C0.04063832 20.33382885 0.042721 18.66611905 0 17 C-2.12762271 15.59900663 -2.12762271 15.59900663 -5 15 C-7.43467036 16.21286516 -9.38311558 17.3700486 -11.5625 18.9375 C-17.35779994 23.03726075 -17.35779994 23.03726075 -20.2890625 22.8671875 C-22.69602184 21.64722181 -23.7177936 20.36195916 -25 18 C-24.7722168 16.015625 -24.7722168 16.015625 -24 14 C-21.63090177 12.17716733 -19.33489338 10.57799017 -16.8125 9 C-16.15185547 8.57460937 -15.49121094 8.14921875 -14.81054688 7.7109375 C-13.50216619 6.86882081 -12.18986377 6.03276318 -10.87353516 5.203125 C-9.11485508 4.0737563 -7.40930789 2.88852705 -5.69921875 1.6875 C-3 0 -3 0 0 0 Z " fill="#000000" transform="translate(389,136)"/>
<path d="M0 0 C3.9166562 2.59284466 5.95637965 6.00763369 7.1875 10.5 C7.46936624 15.43720538 6.22651006 19.59270135 3.1875 23.5 C-1.61666752 27.81143239 -5.09720511 30.00990637 -11.72265625 29.8125 C-16.71103926 29.06657357 -19.89019864 26.49324762 -23.25 22.875 C-25.36758307 18.30102057 -25.48658461 14.45993123 -24.8125 9.5 C-22.97230989 4.89952473 -19.69677517 2.41320638 -15.8125 -0.5 C-10.55835964 -2.25138012 -5.06425425 -2.48290651 0 0 Z M-14.75 9.1875 C-15.99711323 11.45471461 -15.99711323 11.45471461 -15.75 14 C-14.58300104 17.11199723 -13.54079091 18.5828226 -10.8125 20.5 C-7.67887282 20.58892339 -7.67887282 20.58892339 -4.8125 19.5 C-2.49712405 16.68291805 -2.49712405 16.68291805 -3 13.5 C-3.9769978 9.79387071 -3.9769978 9.79387071 -6.8125 7.5 C-10.33256028 6.98665788 -12.01765233 6.80771332 -14.75 9.1875 Z " fill="#000000" transform="translate(173.8125,95.5)"/>
<path d="M0 0 C3.29156962 2.69310241 5.84109876 5.43219752 7.75 9.25 C8.16593526 13.76929654 8.30848834 17.89787033 6.5625 22.125 C3.70130702 25.47950211 0.38487835 28.86734132 -4.1328125 29.5234375 C-10.40960861 29.80775231 -14.53155214 28.45719392 -19.25 24.25 C-22.88793402 20.12017631 -23.92190684 15.90341607 -23.625 10.45703125 C-22.85120019 5.90289695 -21.17127463 2.72496083 -17.484375 -0.10546875 C-11.24452893 -3.70443508 -6.24271821 -3.36146365 0 0 Z M-12.6875 9.4375 C-14.50537706 12.10757096 -14.50537706 12.10757096 -14.0625 14.9375 C-13.30915547 17.23622081 -13.30915547 17.23622081 -12.25 19.25 C-9.13352757 20.37539282 -7.63530382 20.39011048 -4.5 19.25 C-1.93440152 17.32937492 -1.93440152 17.32937492 -1.25 13.75 C-0.96951431 10.39318912 -0.96951431 10.39318912 -2.3125 8.3125 C-6.39157932 6.07558553 -9.25658387 6.35847271 -12.6875 9.4375 Z " fill="#010101" transform="translate(370.25,116.75)"/>
<path d="M0 0 C4.00662352 2.77381629 5.72285805 4.66857415 7.25 9.25 C8.05555864 15.72899309 7.35403876 20.20441075 3.734375 25.65625 C2.00974332 27.50795981 0.61575316 28.36061911 -1.75 29.25 C-3.07 29.25 -4.39 29.25 -5.75 29.25 C-6.08 26.28 -6.41 23.31 -6.75 20.25 C-5.43 19.59 -4.11 18.93 -2.75 18.25 C-2.75 15.94 -2.75 13.63 -2.75 11.25 C-6.1519487 9.15649311 -8.80272412 9.07057837 -12.75 9.25 C-13.47436161 12.63035419 -13.81225715 14.96701294 -13.0625 18.375 C-12.75 21.25 -12.75 21.25 -14.4375 23.6875 C-16.75 25.25 -16.75 25.25 -18.8125 25.4375 C-21.30441076 23.91019985 -22.32327347 22.12432774 -23.33203125 19.41015625 C-24.31048459 14.35328991 -23.11753787 9.47736707 -20.4453125 5.125 C-15.12577294 -1.48997148 -7.96889955 -4.27025419 0 0 Z " fill="#010101" transform="translate(412.75,278.75)"/>
<path d="M0 0 C4.22630242 3.99975386 7.71085556 8.34155429 11.1875 13 C11.98704102 14.04800781 11.98704102 14.04800781 12.80273438 15.1171875 C18.11937921 22.20604728 18.11937921 22.20604728 19 26 C18.09062497 28.70199362 16.60052448 30.59921328 15 33 C4.23265975 32.3653397 -6.35549183 30.67880003 -17 29 C-15.80100302 25.9168649 -14.52299523 22.93720508 -13 20 C-10.93722893 20.14194764 -8.87478969 20.28872216 -6.8125 20.4375 C-5.66394531 20.51871094 -4.51539062 20.59992188 -3.33203125 20.68359375 C-0.48401829 20.95403812 2.21210482 21.37521747 5 22 C4.33871094 21.21496094 3.67742187 20.42992187 2.99609375 19.62109375 C2.14218028 18.56073966 1.28937341 17.49949374 0.4375 16.4375 C-0.21895508 15.66696289 -0.21895508 15.66696289 -0.88867188 14.88085938 C-3.35256895 11.75733631 -4.00800433 10.24213096 -3.875 6.21875 C-3.03156598 3.11611771 -2.5387925 1.8764988 0 0 Z " fill="#000000" transform="translate(107,143)"/>
<path d="M0 0 C6.33333333 0 12.66666667 0 19 0 C19 2.97 19 5.94 19 9 C17.2984375 9.4640625 17.2984375 9.4640625 15.5625 9.9375 C12.21224901 10.62924531 12.21224901 10.62924531 11 12 C10.77486899 13.33802186 10.60639193 14.68573023 10.46484375 16.03515625 C10.33432617 17.24848633 10.33432617 17.24848633 10.20117188 18.48632812 C10.0706543 19.7615332 10.0706543 19.7615332 9.9375 21.0625 C9.84662109 21.91650391 9.75574219 22.77050781 9.66210938 23.65039062 C9.43749278 25.76651535 9.21824773 27.88320894 9 30 C7.52093108 30.02689216 6.04172517 30.04634621 4.5625 30.0625 C3.32693359 30.07990234 3.32693359 30.07990234 2.06640625 30.09765625 C0 30 0 30 -1 29 C-1.09918457 27.53262975 -1.13079841 26.06056091 -1.1328125 24.58984375 C-1.13410156 23.68169922 -1.13539063 22.77355469 -1.13671875 21.83789062 C-1.13285156 20.88076172 -1.12898437 19.92363281 -1.125 18.9375 C-1.12886719 18.00744141 -1.13273438 17.07738281 -1.13671875 16.11914062 C-1.12903623 10.65302815 -0.80250387 5.4073475 0 0 Z " fill="#030303" transform="translate(245,70)"/>
<path d="M0 0 C2.85514703 1.20609949 4.25160534 2.91843518 6.27734375 5.2578125 C7.0559375 6.155 7.83453125 7.0521875 8.63671875 7.9765625 C9.85101563 9.41515625 9.85101563 9.41515625 11.08984375 10.8828125 C11.92 11.8625 12.75015625 12.8421875 13.60546875 13.8515625 C20.33013259 21.92115911 20.33013259 21.92115911 22.08984375 25.8828125 C22.74984375 25.8828125 23.40984375 25.8828125 24.08984375 25.8828125 C24.41984375 27.5328125 24.74984375 29.1828125 25.08984375 30.8828125 C22.83984375 32.9453125 22.83984375 32.9453125 20.08984375 34.8828125 C15.36187766 34.39762695 13.2330763 30.9721288 10.40234375 27.5078125 C9.87850098 26.88165039 9.3546582 26.25548828 8.81494141 25.61035156 C7.22937336 23.70960058 5.65767046 21.79821164 4.08984375 19.8828125 C3.62723145 19.31981445 3.16461914 18.75681641 2.68798828 18.17675781 C0.72694778 15.78908708 -1.22654959 13.39584932 -3.16796875 10.9921875 C-4.88793144 8.84176772 -4.88793144 8.84176772 -6.91015625 6.8828125 C-6.91015625 5.8928125 -6.91015625 4.9028125 -6.91015625 3.8828125 C-2.85235278 -0.17499097 -2.85235278 -0.17499097 0 0 Z " fill="#000000" transform="translate(132.91015625,102.1171875)"/>
<path d="M0 0 C5.81401384 1.00865052 5.81401384 1.00865052 8 4 C8 4.99 8 5.98 8 7 C10.31 7.33 12.62 7.66 15 8 C15.6875 9.6875 15.6875 9.6875 16 12 C14.5625 14.75 14.5625 14.75 13 17 C12.35933594 16.82339844 11.71867187 16.64679688 11.05859375 16.46484375 C8.1710226 15.88388681 5.92865144 15.60666287 3 16 C0.68750392 17.99577523 -0.78148896 20.04206448 -2.4296875 22.60546875 C-4.05217577 25.07956155 -5.85149657 26.97705846 -8 29 C-11.465 27.02 -11.465 27.02 -15 25 C-14.46104484 20.65711497 -12.95867489 18.19758786 -10.3125 14.75 C-6.69088943 9.94076218 -3.28694924 5.04247894 0 0 Z " fill="#010101" transform="translate(342,97)"/>
<path d="M0 0 C0.66 1.65 1.32 3.3 2 5 C7.18883152 4.53671147 11.3546673 3.58851289 16.16796875 1.6328125 C18.49976512 0.82737324 20.55574969 0.77085153 23 1 C23.66 3.97 24.32 6.94 25 10 C21.27635602 11.51397468 17.54526997 13.00868338 13.8125 14.5 C12.75740234 14.92925781 11.70230469 15.35851562 10.61523438 15.80078125 C9.08286133 16.40986328 9.08286133 16.40986328 7.51953125 17.03125 C6.58214111 17.40830078 5.64475098 17.78535156 4.67895508 18.17382812 C1.9601439 19.01229136 -0.17452884 19.16132746 -3 19 C-3.18175781 18.33613281 -3.36351563 17.67226563 -3.55078125 16.98828125 C-4.9185444 12.18357479 -6.40319842 8.28472261 -9 4 C-8.67 3.01 -8.34 2.02 -8 1 C-5.07175348 0.02391783 -3.04386724 -0.08226668 0 0 Z " fill="#010101" transform="translate(90,296)"/>
<path d="M0 0 C2 3 2 3 1.75 6.625 C1.5025 7.73875 1.255 8.8525 1 10 C-1.82883747 11.41441874 -3.87376745 11.31900332 -7 11 C-8.9375 9.375 -8.9375 9.375 -10 7 C-9.9375 3.875 -9.9375 3.875 -9 1 C-5.99472217 -1.46862107 -3.58197907 -1.22541389 0 0 Z " fill="#020202" transform="translate(276,392)"/>
<path d="M0 0 C1.32850242 6.40096618 1.32850242 6.40096618 -0.0625 8.9375 C-2.86718329 10.47555213 -4.85514075 10.39310741 -8 10 C-9.9375 8.9375 -9.9375 8.9375 -11 7 C-10.9375 3.4375 -10.9375 3.4375 -10 0 C-6.65782978 -3.09460206 -3.87980298 -1.58719213 0 0 Z " fill="#010101" transform="translate(287,93)"/>
</svg>
