<?xml version="1.0" encoding="UTF-8"?>
<svg version="1.1" xmlns="http://www.w3.org/2000/svg" width="360" height="360">
<path d="M0 0 C1.71420513 -0.00435278 3.42840831 -0.00953781 5.14260864 -0.01548767 C9.77918642 -0.02883014 14.41568244 -0.02946149 19.05227566 -0.02692437 C22.93359121 -0.02585112 26.81489047 -0.03074722 30.69620252 -0.03552979 C39.86030638 -0.04660922 49.02436925 -0.04707163 58.18847656 -0.04101562 C67.61617793 -0.03498079 77.04372987 -0.04727801 86.47140574 -0.06858569 C94.58808104 -0.08625021 102.70470899 -0.0921953 110.82140279 -0.08894795 C115.65912139 -0.08714219 120.49673346 -0.08970002 125.33443451 -0.10366249 C129.88833679 -0.11631489 134.44200776 -0.11422725 138.99590683 -0.1012516 C140.65783901 -0.09890207 142.31978785 -0.10156157 143.9817009 -0.10987473 C162.18122976 -0.19427604 179.3944025 2.92294605 193.00097656 16.0480957 C199.33799512 23.00782707 204.26468092 30.23126395 207.02832031 39.2746582 C207.3686026 40.31725296 207.70888489 41.35984772 208.05947876 42.43403625 C209.73219249 49.24511586 209.32397847 56.33767631 209.31884766 63.30664062 C209.32483885 64.9320303 209.33164575 66.55741714 209.33920288 68.18280029 C209.35681232 72.58183481 209.36155619 76.98079142 209.36283445 81.37985778 C209.36425975 84.13387017 209.36853656 86.88786299 209.37382889 89.6418705 C209.39231412 99.26597975 209.4005016 108.89003374 209.39892578 118.51416016 C209.39772556 127.45848363 209.41880832 136.40256534 209.45041311 145.34682769 C209.47664488 153.04735221 209.48729016 160.74779813 209.48601496 168.44836694 C209.48550725 173.03798803 209.49108377 177.62739421 209.51237106 182.21697044 C209.53186959 186.53863567 209.5317994 190.85988358 209.5173378 195.18156433 C209.51526275 196.75803557 209.51987184 198.33453374 209.53205872 199.91095924 C209.65715824 217.22978701 205.38335335 231.15958166 193.41503906 243.91918945 C178.25268767 258.88301579 161.14776266 261.746586 140.68847656 261.6628418 C138.99485945 261.66691746 137.30124501 261.67226486 135.6076355 261.67877197 C131.04975106 261.69233328 126.49207261 261.68719365 121.93418503 261.67763472 C117.13881674 261.66997962 112.34346477 261.67709983 107.5480957 261.68179321 C99.49882884 261.68723386 91.44964487 261.68010374 83.40039062 261.66577148 C74.12653364 261.64944826 64.8528746 261.65473797 55.57902241 261.6712507 C47.58196743 261.68491396 39.58497164 261.68676167 31.58790874 261.67893469 C26.82681222 261.67428468 22.06580839 261.67355906 17.30471802 261.68354416 C12.82624279 261.6922824 8.34801997 261.68606828 3.86957169 261.66886139 C2.2370864 261.66493284 0.60457945 261.66596731 -1.02789688 261.67264938 C-13.45094272 261.71876733 -26.00592539 261.22643069 -37.03417969 254.8371582 C-38.05640625 254.26094727 -39.07863281 253.68473633 -40.13183594 253.09106445 C-42.926706 251.30342404 -45.4971114 249.48587794 -47.97167969 247.2746582 C-47.97167969 246.6146582 -47.97167969 245.9546582 -47.97167969 245.2746582 C-48.63167969 245.2746582 -49.29167969 245.2746582 -49.97167969 245.2746582 C-49.97167969 244.6146582 -49.97167969 243.9546582 -49.97167969 243.2746582 C-50.63167969 243.2746582 -51.29167969 243.2746582 -51.97167969 243.2746582 C-64.21501303 228.78003183 -67.43856413 212.98025009 -67.37573242 194.45703125 C-67.38145001 192.91458649 -67.38841958 191.37214595 -67.39653015 189.82971191 C-67.41432567 185.67865126 -67.41331883 181.52780356 -67.40758777 177.37671638 C-67.40447537 173.89312687 -67.41061113 170.40957708 -67.41662651 166.92599326 C-67.43062614 158.69753546 -67.42914928 150.46918158 -67.41772461 142.24072266 C-67.40625412 133.79336816 -67.42031149 125.34633156 -67.44712108 116.89901894 C-67.46938036 109.60852333 -67.47589239 102.31812676 -67.47004467 95.02759963 C-67.46669747 90.69003638 -67.46893908 86.35267664 -67.4862957 82.01514244 C-67.50192657 77.93139961 -67.49763362 73.84812218 -67.47899055 69.76439667 C-67.47534847 68.2794916 -67.47828241 66.79455078 -67.48887634 65.30967903 C-67.61139436 46.69261006 -63.32199285 29.93544376 -49.97167969 16.2746582 C-49.31167969 16.2746582 -48.65167969 16.2746582 -47.97167969 16.2746582 C-47.97167969 15.6146582 -47.97167969 14.9546582 -47.97167969 14.2746582 C-34.01185022 2.01348055 -17.73550699 -0.02980938 0 0 Z M58.27832031 48.8996582 C47.39087515 62.22107549 44.73925996 77.63867053 44.02832031 94.2746582 C35.11832031 94.2746582 26.20832031 94.2746582 17.02832031 94.2746582 C17.02832031 102.5246582 17.02832031 110.7746582 17.02832031 119.2746582 C29.89832031 119.7696582 29.89832031 119.7696582 43.02832031 120.2746582 C43.02832031 157.8946582 43.02832031 195.5146582 43.02832031 234.2746582 C53.91832031 234.2746582 64.80832031 234.2746582 76.02832031 234.2746582 C76.35832031 196.6546582 76.68832031 159.0346582 77.02832031 120.2746582 C84.94832031 119.9446582 92.86832031 119.6146582 101.02832031 119.2746582 C101.02832031 111.0246582 101.02832031 102.7746582 101.02832031 94.2746582 C93.10832031 93.9446582 85.18832031 93.6146582 77.02832031 93.2746582 C77.02832031 83.01100847 78.37236351 71.89868138 85.31738281 63.7902832 C91.75320241 58.08914621 98.96467153 57.09438746 107.27832031 57.0871582 C108.0040625 57.07491211 108.72980469 57.06266602 109.47753906 57.05004883 C114.66075393 57.03618996 119.02640164 57.93975797 124.02832031 59.2746582 C125.34832031 59.2746582 126.66832031 59.2746582 128.02832031 59.2746582 C128.02832031 50.3646582 128.02832031 41.4546582 128.02832031 32.2746582 C120.71913989 30.65039589 115.12376363 29.92086755 107.84082031 29.9621582 C106.32560791 29.96844238 106.32560791 29.96844238 104.77978516 29.97485352 C86.65755481 30.24736826 71.05552674 35.54948288 58.27832031 48.8996582 Z " fill="#1F439B" transform="translate(112.9716796875,43.725341796875)"/>
<path d="M0 0 C0 3.71136178 -1.16502756 5.59414379 -2.875 8.875 C-7.09904921 17.01700789 -9.10613023 23.50439924 -9.16062927 32.75054932 C-9.16571709 33.40451116 -9.17080491 34.05847301 -9.17604691 34.73225188 C-9.19166622 36.91036653 -9.20026865 39.08844825 -9.20874023 41.26660156 C-9.21828776 42.83432214 -9.22817931 44.40204066 -9.23838806 45.96975708 C-9.26968818 51.11002122 -9.29003963 56.25030106 -9.30859375 61.390625 C-9.31353973 62.70684861 -9.31353973 62.70684861 -9.31858563 64.04966259 C-9.34937783 72.34199375 -9.37605731 80.63432882 -9.39300442 88.92670059 C-9.41485423 99.49038039 -9.45671257 110.05354836 -9.52644199 120.61702371 C-9.5739265 128.06704271 -9.59797082 135.51692491 -9.6052013 142.96709037 C-9.61012325 147.40447868 -9.62486881 151.84128929 -9.6649456 156.27851105 C-10.56895548 188.32067821 -10.56895548 188.32067821 4 216 C5.485 216.99 5.485 216.99 7 218 C7 218.66 7 219.32 7 220 C7.7734375 220.3403125 7.7734375 220.3403125 8.5625 220.6875 C11.92403127 222.4975553 14.92911144 224.73996404 18 227 C14.3203125 228.1640625 14.3203125 228.1640625 11.4375 226.6875 C10.633125 226.130625 9.82875 225.57375 9 225 C7.515 224.01 7.515 224.01 6 223 C6 222.34 6 221.68 6 221 C5.34 221 4.68 221 4 221 C4 220.34 4 219.68 4 219 C3.34 219 2.68 219 2 219 C-10.24333334 204.50537363 -13.46688444 188.70559189 -13.40405273 170.18237305 C-13.40977032 168.63992829 -13.41673989 167.09748775 -13.42485046 165.55505371 C-13.44264598 161.40399306 -13.44163914 157.25314536 -13.43590808 153.10205817 C-13.43279568 149.61846867 -13.43893145 146.13491888 -13.44494683 142.65133506 C-13.45894645 134.42287726 -13.45746959 126.19452337 -13.44604492 117.96606445 C-13.43457443 109.51870996 -13.4486318 101.07167336 -13.4754414 92.62436074 C-13.49770068 85.33386513 -13.5042127 78.04346856 -13.49836498 70.75294143 C-13.49501778 66.41537817 -13.4972594 62.07801844 -13.51461601 57.74048424 C-13.53024688 53.65674141 -13.52595393 49.57346398 -13.50731087 45.48973846 C-13.50366878 44.0048334 -13.50660272 42.51989257 -13.51719666 41.03502083 C-13.58584549 30.60357436 -12.33234854 20.89433478 -9 11 C-8.34 10.34 -7.68 9.68 -7 9 C-5.9926892 7.67218122 -4.99387334 6.33790641 -4 5 C-2.67130142 3.32963607 -1.33895632 1.66215268 0 0 Z " fill="#153278" transform="translate(59,68)"/>
<path d="M0 0 C7.92 0.33 15.84 0.66 24 1 C24 1.33 24 1.66 24 2 C16.74 2 9.48 2 2 2 C2 39.62 2 77.24 2 116 C-9.88 116 -21.76 116 -34 116 C-34 78.38 -34 40.76 -34 2 C-42.25 2 -50.5 2 -59 2 C-59 1.67 -59 1.34 -59 1 C-50.42 1 -41.84 1 -33 1 C-33 38.29 -33 75.58 -33 114 C-22.11 114 -11.22 114 0 114 C0 76.38 0 38.76 0 0 Z " fill="#011463" transform="translate(189,164)"/>
<path d="M0 0 C1.07070748 -0.00445668 1.07070748 -0.00445668 2.16304541 -0.0090034 C4.54942343 -0.01765883 6.9357511 -0.019196 9.32214355 -0.02069092 C11.03575751 -0.02532149 12.74937044 -0.03034648 14.46298218 -0.03573608 C19.11630274 -0.04884291 23.76960889 -0.05530222 28.42294502 -0.05974674 C31.33422666 -0.0626815 34.24550439 -0.06678717 37.15678406 -0.07125092 C46.27695398 -0.08492412 55.39711494 -0.09459046 64.51729441 -0.09845281 C75.02300516 -0.10292697 85.52858538 -0.12044575 96.03425646 -0.1494534 C104.16782917 -0.17112643 112.30136531 -0.18116015 120.43496656 -0.18249393 C125.28616833 -0.18353835 130.13724738 -0.18936799 134.98841858 -0.20731354 C139.55866992 -0.22389063 144.12870758 -0.22590334 148.69897842 -0.21717453 C150.36736247 -0.21640916 152.03575847 -0.22068003 153.70411301 -0.23063278 C172.09618973 -0.33382946 189.16014078 2.84783198 202.89050293 16.08966064 C209.23020326 22.88219672 209.23020326 22.88219672 210.80456543 26.14044189 C210.45300293 28.37481689 210.45300293 28.37481689 209.80456543 30.14044189 C209.34630371 29.33993408 209.34630371 29.33993408 208.87878418 28.52325439 C200.73148928 15.25808128 189.02396014 7.23857651 173.96586514 3.56112885 C170.57821791 2.90173904 167.21697332 2.87135627 163.78125 2.89993286 C163.01487386 2.89822401 162.24849772 2.89651516 161.45889807 2.89475453 C158.91321544 2.89148309 156.36780154 2.90242424 153.82214355 2.91339111 C151.98847459 2.91395574 150.15480518 2.91363767 148.32113647 2.9125061 C143.35891865 2.91193358 138.39679803 2.92367163 133.43460274 2.93765402 C128.24294658 2.95017814 123.05128807 2.9513332 117.85961914 2.95370483 C108.03547481 2.95991466 98.21137512 2.97631876 88.38725042 2.99640381 C77.19985959 3.01877829 66.01246659 3.02976014 54.82505894 3.03979468 C31.81820304 3.06068541 8.81138674 3.09585173 -14.19543457 3.14044189 C-10.36241393 -0.69257875 -5.15912 0.01202347 0 0 Z " fill="#6A7FAA" transform="translate(103.1954345703125,43.85955810546875)"/>
<path d="M0 0 C0.89404541 -0.01377686 1.78809082 -0.02755371 2.70922852 -0.04174805 C9.81626589 0.00728404 14.43585093 1.39727753 21.6875 3.375 C21.6875 13.605 21.6875 23.835 21.6875 34.375 C21.3575 33.715 21.0275 33.055 20.6875 32.375 C20.0275 32.045 19.3675 31.715 18.6875 31.375 C19.0175 22.465 19.3475 13.555 19.6875 4.375 C-3.03853396 1.84988512 -24.76858179 1.76272136 -43.671875 16.125 C-55.05376206 25.82317596 -60.96062366 39.79474086 -62.8671875 54.4140625 C-62.95468262 55.07873535 -63.04217773 55.7434082 -63.13232422 56.42822266 C-63.54556228 59.7414001 -63.92559188 63.05864468 -64.3125 66.375 C-73.2225 66.375 -82.1325 66.375 -91.3125 66.375 C-91.3125 74.625 -91.3125 82.875 -91.3125 91.375 C-90.6525 91.705 -89.9925 92.035 -89.3125 92.375 C-90.6325 92.375 -91.9525 92.375 -93.3125 92.375 C-93.3125 83.135 -93.3125 73.895 -93.3125 64.375 C-84.4025 64.375 -75.4925 64.375 -66.3125 64.375 C-65.77676544 58.15436443 -65.77676544 58.15436443 -65.26635742 51.93164062 C-64.74235765 46.30107698 -63.61192982 41.5365536 -61.3125 36.375 C-60.63960937 34.828125 -60.63960937 34.828125 -59.953125 33.25 C-56.80468632 26.74086835 -53.39196005 21.51625397 -48.3125 16.375 C-47.549375 15.55 -46.78625 14.725 -46 13.875 C-44.3125 12.375 -44.3125 12.375 -42.3125 12.375 C-42.3125 11.715 -42.3125 11.055 -42.3125 10.375 C-28.31925152 3.25562796 -15.64972715 0.13173395 0 0 Z " fill="#021362" transform="translate(221.3125,71.625)"/>
<path d="M0 0 C2.1519437 3.22791555 2.20086443 4.28400809 2 8 C2.66 8 3.32 8 4 8 C4.09362712 29.28876572 4.16406905 50.57749726 4.20724869 71.86642742 C4.22783464 81.75224903 4.25587905 91.63794238 4.30175781 101.52368164 C4.3417474 110.14459267 4.36746162 118.76541076 4.37635398 127.38641196 C4.38154828 131.94711909 4.39367321 136.50756043 4.42292023 141.06818199 C4.45028136 145.37000661 4.45840367 149.67145859 4.45243073 153.97336197 C4.45352179 155.5433906 4.46135161 157.11343306 4.4768219 158.68338585 C4.59321553 171.11601601 2.92145117 182.37062856 -4 193 C-4.66 192.67 -5.32 192.34 -6 192 C-4.54649715 187.54671467 -3.06753502 183.11890812 -1.375 178.75 C0.56844592 173.44969294 1.12516785 168.98660541 1.12698364 163.34710693 C1.12854363 162.69173297 1.13010362 162.03635901 1.13171089 161.36112523 C1.13568834 159.17269319 1.13254382 156.98433095 1.12939453 154.79589844 C1.13075007 153.22357645 1.13253086 151.65125478 1.13470459 150.07893372 C1.13926228 145.81222473 1.13749579 141.54553994 1.1343255 137.27883053 C1.13179154 132.8080584 1.1341425 128.33728832 1.13571167 123.86651611 C1.13753109 116.3545291 1.1351338 108.84255192 1.13037109 101.33056641 C1.12493683 92.65954477 1.12668596 83.98854668 1.1321975 75.31752563 C1.13674457 67.86426523 1.13737114 60.4110119 1.13475883 52.95775056 C1.13320381 48.51025905 1.13298086 44.06277857 1.13629532 39.61528778 C1.13919692 35.42922561 1.13715645 31.24319357 1.13140106 27.05713463 C1.13008536 25.52575671 1.13044722 23.99437623 1.13266373 22.46299934 C1.14258132 14.91104202 1.0477863 7.49213681 0 0 Z " fill="#071E69" transform="translate(318,85)"/>
<path d="M0 0 C0 4.32073283 -1.63287874 6.53694041 -4.55859375 9.66796875 C-13.64847745 18.22871161 -25.26319621 23.35610045 -37.77761841 23.22946167 C-38.52988421 23.22990923 -39.28215002 23.23035679 -40.05721176 23.23081791 C-42.56186093 23.22977299 -45.06620296 23.21429514 -47.57080078 23.19873047 C-49.37337591 23.19484946 -51.17595301 23.1918041 -52.97853088 23.18952942 C-57.86526601 23.18046443 -62.75185621 23.1582545 -67.6385293 23.13258505 C-71.72600791 23.11199571 -75.81350027 23.09704234 -79.90100181 23.08182538 C-89.55222756 23.04548264 -99.20335221 22.99765276 -108.85449219 22.94335938 C-118.78763659 22.88773876 -128.72068681 22.85423934 -138.65395558 22.83125198 C-147.19953901 22.81052504 -155.74497044 22.77450704 -164.29044521 22.7267276 C-169.38639541 22.69847462 -174.48219271 22.67619485 -179.57822037 22.66924667 C-184.37682158 22.66215522 -189.17495466 22.63588912 -193.97338676 22.59541893 C-195.72558754 22.5837904 -197.47784761 22.57874979 -199.23008537 22.58111382 C-209.31353858 22.59020539 -218.64250431 22.27863854 -228 18 C-228.33 17.34 -228.66 16.68 -229 16 C-227.824375 16.28875 -226.64875 16.5775 -225.4375 16.875 C-224.77621094 17.03742188 -224.11492187 17.19984375 -223.43359375 17.3671875 C-221.54689269 17.85779034 -219.6800717 18.4251537 -217.82451057 19.02283669 C-213.84471663 20.03967494 -210.47577416 20.25694294 -206.37423706 20.26742554 C-205.63830546 20.27195665 -204.90237387 20.27648776 -204.14414132 20.28115618 C-201.69482471 20.29374764 -199.24573197 20.29218322 -196.79638672 20.29052734 C-195.0332155 20.29651603 -193.2700469 20.30332236 -191.50688171 20.31088257 C-186.72763607 20.32851882 -181.9484621 20.33323705 -177.16918707 20.33451414 C-174.17848947 20.33593807 -171.18780995 20.34021234 -168.19711685 20.34550858 C-157.74956359 20.36400364 -147.30206128 20.37218017 -136.85449219 20.37060547 C-127.13937104 20.36940543 -117.42447254 20.39048219 -107.70940769 20.4220928 C-99.35073556 20.4483138 -90.99213587 20.45897027 -82.63342297 20.45769465 C-77.64920096 20.45718657 -72.66517673 20.46278393 -67.68099594 20.48405075 C-62.98754304 20.50353053 -58.29447456 20.50349151 -53.60100746 20.48901749 C-51.8874702 20.48694005 -50.17390826 20.49156604 -48.46041298 20.5037384 C-36.12942107 20.58559531 -24.41055964 19.72394757 -13.9375 12.375 C-11.01486908 10.36212036 -8.21977235 8.5020647 -5 7 C-5.33 6.34 -5.66 5.68 -6 5 C-6.66 5.33 -7.32 5.66 -8 6 C-8 5.01 -8 4.02 -8 3 C-6.2984375 2.5359375 -6.2984375 2.5359375 -4.5625 2.0625 C-1.21224901 1.37075469 -1.21224901 1.37075469 0 0 Z " fill="#06287D" transform="translate(308,281)"/>
<path d="M0 0 C0 3.71136178 -1.16502756 5.59414379 -2.875 8.875 C-5.84781336 14.60520546 -8.10335617 19.57405252 -9 26 C-9.33 26 -9.66 26 -10 26 C-10.33 77.15 -10.66 128.3 -11 181 C-11.33 181 -11.66 181 -12 181 C-12.22476148 161.19743513 -12.42556295 141.39476253 -12.59840012 121.5916748 C-12.67921365 112.39527379 -12.76765538 103.19906802 -12.87451172 94.00292969 C-12.9677056 85.98088363 -13.04612185 77.95884721 -13.10732102 69.93649101 C-13.14018166 65.69474301 -13.18008194 61.45334265 -13.2377243 57.21185303 C-13.29192393 53.20642399 -13.32612298 49.20128671 -13.34602928 45.1955452 C-13.35660814 43.73799344 -13.37403396 42.28046964 -13.39944649 40.82310104 C-13.57546218 30.39900611 -12.3279612 20.86347119 -9 11 C-8.34 10.34 -7.68 9.68 -7 9 C-5.9926892 7.67218122 -4.99387334 6.33790641 -4 5 C-2.67130142 3.32963607 -1.33895632 1.66215268 0 0 Z " fill="#273F6F" transform="translate(59,68)"/>
<path d="M0 0 C0 0.33 0 0.66 0 1 C-1.05058594 0.97679688 -2.10117188 0.95359375 -3.18359375 0.9296875 C-17.2269639 0.60315012 -17.2269639 0.60315012 -30 6 C-30.66 6 -31.32 6 -32 6 C-32.2475 6.680625 -32.495 7.36125 -32.75 8.0625 C-34 11 -34 11 -35.96875 14.15625 C-38.25834341 18.11928828 -39.05188826 21.95639 -39.75 26.4375 C-40.1625 28.933125 -40.575 31.42875 -41 34 C-33.08 34 -25.16 34 -17 34 C-15.6691089 36.66178221 -15.88731007 38.68739396 -15.90234375 41.6640625 C-15.90556641 42.78554687 -15.90878906 43.90703125 -15.91210938 45.0625 C-15.92048828 46.238125 -15.92886719 47.41375 -15.9375 48.625 C-15.94201172 49.80835938 -15.94652344 50.99171875 -15.95117188 52.2109375 C-15.96298533 55.14067507 -15.97945742 58.07031272 -16 61 C-16.66 61 -17.32 61 -18 61 C-18 52.75 -18 44.5 -18 36 C-25.85342779 36.03958993 -25.85342779 36.03958993 -33.70678711 36.09008789 C-34.6788208 36.09258545 -35.65085449 36.09508301 -36.65234375 36.09765625 C-38.15269165 36.10551147 -38.15269165 36.10551147 -39.68334961 36.11352539 C-42 36 -42 36 -43 35 C-43.96036524 25.39634758 -41.3718469 14.50002392 -35.5625 6.75 C-30.68852711 1.2796338 -26.92347163 -0.35128332 -19.6875 -0.87890625 C-12.99643332 -1.18039327 -6.60899587 -1.14939059 0 0 Z " fill="#021666" transform="translate(232,102)"/>
<path d="M0 0 C2.73679336 2.73679336 3.46607573 5.97751405 4.6875 9.5625 C7.11142935 16.37465617 10.13921433 24.56960717 17 28 C17 28.66 17 29.32 17 30 C17.515625 30.226875 18.03125 30.45375 18.5625 30.6875 C21.92403127 32.4975553 24.92911144 34.73996404 28 37 C24.3203125 38.1640625 24.3203125 38.1640625 21.4375 36.6875 C20.633125 36.130625 19.82875 35.57375 19 35 C18.01 34.34 17.02 33.68 16 33 C16 32.34 16 31.68 16 31 C15.34 31 14.68 31 14 31 C14 30.34 14 29.68 14 29 C13.34 29 12.68 29 12 29 C4.76684251 20.43681607 -0.91822743 11.38602019 0 0 Z " fill="#153079" transform="translate(49,258)"/>
<path d="M0 0 C0 4.32073283 -1.63287874 6.53694041 -4.55859375 9.66796875 C-12.32292913 16.98032619 -21.28047558 21.64268252 -32 22 C-30.68 21.67 -29.36 21.34 -28 21 C-28 20.34 -28 19.68 -28 19 C-27.23816406 18.72027344 -26.47632813 18.44054687 -25.69140625 18.15234375 C-19.21055225 15.63605712 -14.0241082 12.89250319 -8.7421875 8.35546875 C-7 7 -7 7 -5 7 C-5.33 6.34 -5.66 5.68 -6 5 C-6.99 5.495 -6.99 5.495 -8 6 C-8 5.01 -8 4.02 -8 3 C-6.865625 2.690625 -5.73125 2.38125 -4.5625 2.0625 C-1.21224901 1.37075469 -1.21224901 1.37075469 0 0 Z " fill="#17317F" transform="translate(308,281)"/>
<path d="M0 0 C0 3.71136178 -1.16502756 5.59414379 -2.875 8.875 C-5.84781336 14.60520546 -8.10335617 19.57405252 -9 26 C-9.33 26 -9.66 26 -10 26 C-10.66 32.93 -11.32 39.86 -12 47 C-12.33 47 -12.66 47 -13 47 C-13.46178444 34.48051076 -13.25967819 22.9084434 -9 11 C-8.34 10.34 -7.68 9.68 -7 9 C-5.9926892 7.67218122 -4.99387334 6.33790641 -4 5 C-2.67130142 3.32963607 -1.33895632 1.66215268 0 0 Z " fill="#1B357F" transform="translate(59,68)"/>
<path d="M0 0 C0 0.33 0 0.66 0 1 C-1.05058594 0.97679688 -2.10117188 0.95359375 -3.18359375 0.9296875 C-17.2269639 0.60315012 -17.2269639 0.60315012 -30 6 C-30.66 6 -31.32 6 -32 6 C-32.4021875 7.2065625 -32.4021875 7.2065625 -32.8125 8.4375 C-33.204375 9.283125 -33.59625 10.12875 -34 11 C-34.99 11.33 -35.98 11.66 -37 12 C-37 12.66 -37 13.32 -37 14 C-37.66 14 -38.32 14 -39 14 C-37.25747181 8.61400376 -34.15032943 4.78170153 -29.8125 1.1875 C-20.96251985 -2.54915828 -9.30258719 -1.61784125 0 0 Z " fill="#0E266F" transform="translate(232,102)"/>
<path d="M0 0 C13.85468835 3.36049888 24.33415205 10.9690095 33.06640625 22.10546875 C34 24 34 24 33.65234375 26.23828125 C33.43707031 26.81964844 33.22179687 27.40101562 33 28 C32.69449219 27.46632813 32.38898438 26.93265625 32.07421875 26.3828125 C24.38154034 13.85783188 13.81107103 6.60369034 0 2 C0 1.34 0 0.68 0 0 Z " fill="#5068A5" transform="translate(280,46)"/>
<path d="M0 0 C0.66 0.66 1.32 1.32 2 2 C-0.01895644 9.14152146 -1.93132449 15.75167689 -6 22 C-6.66 21.67 -7.32 21.34 -8 21 C-6.13236819 15.27789404 -4.14710968 9.62338249 -2 4 C-1.34 4 -0.68 4 0 4 C0 2.68 0 1.36 0 0 Z " fill="#213D80" transform="translate(320,256)"/>
<path d="M0 0 C1.65 0 3.3 0 5 0 C5 0.66 5 1.32 5 2 C5.515625 2.226875 6.03125 2.45375 6.5625 2.6875 C9.92403127 4.4975553 12.92911144 6.73996404 16 9 C12.3203125 10.1640625 12.3203125 10.1640625 9.4375 8.6875 C8.633125 8.130625 7.82875 7.57375 7 7 C6.01 6.34 5.02 5.68 4 5 C4 4.34 4 3.68 4 3 C3.34 3 2.68 3 2 3 C2 2.34 2 1.68 2 1 C1.34 0.67 0.68 0.34 0 0 Z " fill="#173178" transform="translate(61,286)"/>
<path d="M0 0 C0.66 0 1.32 0 2 0 C1.01 6.93 0.02 13.86 -1 21 C-1.66 21 -2.32 21 -3 21 C-2.69467865 17.68679669 -2.37954424 14.37460045 -2.0625 11.0625 C-1.97548828 10.11697266 -1.88847656 9.17144531 -1.79882812 8.19726562 C-1.71181641 7.29814453 -1.62480469 6.39902344 -1.53515625 5.47265625 C-1.456604 4.64000244 -1.37805176 3.80734863 -1.29711914 2.94946289 C-1 1 -1 1 0 0 Z " fill="#061C69" transform="translate(158,115)"/>
<path d="M0 0 C1.21597114 3.64791341 0.33183805 4.67699678 -1.23046875 8.015625 C-2.4986432 11.28584134 -2.69464417 14.51894359 -3 18 C-3.99 18.33 -4.98 18.66 -6 19 C-5.45018084 12.95198929 -4.09570426 7.69398894 -2 2 C-1.34 2 -0.68 2 0 2 C0 1.34 0 0.68 0 0 Z " fill="#031B64" transform="translate(195,114)"/>
<path d="M0 0 C-0.53367187 0.21914063 -1.06734375 0.43828125 -1.6171875 0.6640625 C-7.00309712 2.95633545 -11.95577986 5.65341635 -16.93359375 8.73046875 C-19 10 -19 10 -21 11 C-19.53426802 7.21693758 -17.66597502 5.8671701 -14.1875 3.875 C-13.33542969 3.37742187 -12.48335937 2.87984375 -11.60546875 2.3671875 C-4.15887097 -1.54032258 -4.15887097 -1.54032258 0 0 Z " fill="#445C99" transform="translate(88,48)"/>
<path d="M0 0 C3.83542477 1.91771238 4.70424027 7.11803129 6 11 C6.80725684 14.3142378 7.45557302 17.63314891 8 21 C7.34 21 6.68 21 6 21 C5.73445313 20.10796875 5.46890625 19.2159375 5.1953125 18.296875 C4.84210938 17.12640625 4.48890625 15.9559375 4.125 14.75 C3.77695312 13.58984375 3.42890625 12.4296875 3.0703125 11.234375 C2.1343285 8.1158571 2.1343285 8.1158571 0.8671875 5.828125 C0 4 0 4 0 0 Z " fill="#374C98" transform="translate(314,72)"/>
<path d="M0 0 C0.66 0.33 1.32 0.66 2 1 C1.45730469 1.65226562 0.91460937 2.30453125 0.35546875 2.9765625 C-5.03122438 9.5496613 -5.03122438 9.5496613 -9 17 C-9.66796875 15.28125 -9.66796875 15.28125 -10 13 C-8.92578125 10.78125 -8.92578125 10.78125 -7.3125 8.5 C-6.75949219 7.71753906 -6.20648438 6.93507813 -5.63671875 6.12890625 C-3.91413753 3.88831731 -2.11856872 1.87411848 0 0 Z " fill="#3B5198" transform="translate(62,62)"/>
<path d="M0 0 C6.75 0.875 6.75 0.875 9 2 C9 2.66 9 3.32 9 4 C7.02 4 5.04 4 3 4 C3 4.66 3 5.32 3 6 C3.66 6.33 4.32 6.66 5 7 C3.68 7 2.36 7 1 7 C1.33 5.02 1.66 3.04 2 1 C1.34 0.67 0.68 0.34 0 0 Z " fill="#153586" transform="translate(232,103)"/>
<path d="M0 0 C1.65653354 4.96960061 -1.07231419 9.31847732 -3 14 C-3.66 13.67 -4.32 13.34 -5 13 C-4.54554036 11.58208592 -4.08625056 10.16571954 -3.625 8.75 C-3.24214844 7.56664062 -3.24214844 7.56664062 -2.8515625 6.359375 C-2.04826333 4.13372042 -1.10288338 2.09068328 0 0 Z " fill="#122972" transform="translate(317,264)"/>
<path d="M0 0 C3.25524265 3.02272532 5.61820737 6.25718301 8 10 C5.34122043 9.63327178 4.20164528 9.20911362 2.3125 7.25 C0.88788531 4.80780338 0.38687339 2.7854884 0 0 Z " fill="#132A70" transform="translate(56,276)"/>
<path d="M0 0 C0 0.66 0 1.32 0 2 C-3.82989106 3.80230168 -6.78121808 4.19622241 -11 4 C-9.68 3.67 -8.36 3.34 -7 3 C-7 2.34 -7 1.68 -7 1 C-4.53721199 -0.231394 -2.7204945 -0.07159196 0 0 Z " fill="#1B347A" transform="translate(287,299)"/>
<path d="M0 0 C-1.75 2 -1.75 2 -4 4 C-5.32 4 -6.64 4 -8 4 C-8 3.34 -8 2.68 -8 2 C-3.61016949 -1.20338983 -3.61016949 -1.20338983 0 0 Z " fill="#1D357E" transform="translate(208,103)"/>
<path d="M0 0 C1.65 0 3.3 0 5 0 C5.66 1.98 6.32 3.96 7 6 C6.01 5.67 5.02 5.34 4 5 C4 4.34 4 3.68 4 3 C3.34 3 2.68 3 2 3 C2 2.34 2 1.68 2 1 C1.34 0.67 0.68 0.34 0 0 Z " fill="#1A3A83" transform="translate(61,286)"/>
</svg>
